<svg width="172" height="253" viewBox="0 0 172 253" fill="none" xmlns="http://www.w3.org/2000/svg">
    <path d="M6.41602 210.5H34.455V224.5H6.41602C4.78102 224.5 3.45502 223.174 3.45502 221.539V213.461C3.45502 211.826 4.78102 210.5 6.41602 210.5Z" fill="#EDF4FC"/>
    <path d="M48.244 74.176V98.924C48.244 119.392 64.991 136.139 85.459 136.139C105.927 136.139 122.674 119.392 122.674 98.924V74.681C100.775 84.907 69.841 84.746 48.244 74.176Z" fill="#F9D0B4"/>
    <path d="M129.222 71.1411C127.153 72.4361 124.961 73.6121 122.674 74.6811C122.674 81.5971 122.674 94.2231 122.674 98.9241C122.674 99.7631 122.636 100.594 122.58 101.42C123.39 101.55 124.215 101.637 125.062 101.637C133.643 101.637 140.599 94.6801 140.599 86.0991C140.599 78.9601 135.78 72.9621 129.222 71.1411Z" fill="#F9D0B4"/>
    <path d="M48.244 74.1759C46.231 73.1909 44.307 72.1079 42.471 70.9419C35.52 72.4889 30.319 78.6819 30.319 86.0989C30.319 94.6799 37.275 101.637 45.857 101.637C46.704 101.637 47.529 101.551 48.339 101.42C48.284 100.594 48.245 99.7639 48.245 98.9249C48.244 95.5719 48.244 82.5579 48.244 74.1759Z" fill="#F9D0B4"/>
    <path d="M116.648 151.265L108.514 143.838C107.761 143.151 106.597 143.192 105.895 143.93L90.208 160.421C89.438 161.231 89.428 162.499 90.186 163.32L90.788 163.972C95.939 164.452 100.87 165.695 105.468 167.59L116.828 153.838C117.465 153.071 117.385 151.938 116.648 151.265Z" fill="#EDF4FC"/>
    <path d="M81.211 163.973L81.813 163.321C82.571 162.5 82.561 161.232 81.791 160.422L66.104 143.931C65.402 143.192 64.238 143.152 63.485 143.839L55.351 151.266C54.614 151.939 54.534 153.072 55.17 153.841L66.53 167.593C71.129 165.697 76.06 164.453 81.211 163.973Z" fill="#EDF4FC"/>
    <path d="M81.813 163.321L81.211 163.973C82.789 163.826 84.384 163.742 86 163.742C87.616 163.742 89.211 163.825 90.789 163.973L90.187 163.321C89.429 162.5 89.439 161.232 90.209 160.422L105.093 144.774C103.844 142.771 103.145 140.425 103.145 137.972V131.637C97.877 134.505 91.849 136.138 85.459 136.138C79.5 136.138 73.862 134.711 68.855 132.193V137.971C68.855 140.424 68.156 142.771 66.907 144.773L81.791 160.421C82.562 161.232 82.571 162.5 81.813 163.321Z" fill="#F9D0B4"/>
    <path d="M165.584 210.5H137.545V224.5H165.584C167.219 224.5 168.545 223.174 168.545 221.539V213.461C168.545 211.826 167.219 210.5 165.584 210.5Z" fill="#EDF4FC"/>
    <path d="M160.549 250.5C162.893 250.5 164.756 248.531 164.625 246.19L163.367 224.5H137.544V250.5H160.549Z" fill="#F9D0B4"/>
    <path d="M160.511 175.239C160.154 168.822 155.665 163.383 149.433 161.814L120.531 154.54L117.235 152.915C117.188 153.245 117.056 153.566 116.829 153.84L105.469 167.592C99.462 165.117 92.89 163.743 86 163.743C79.11 163.743 72.538 165.117 66.531 167.592L55.171 153.84C54.944 153.566 54.813 153.244 54.765 152.915L51.469 154.54L22.567 161.814C16.334 163.383 11.846 168.822 11.489 175.239L9.44403 210.5H34.455C34.455 225.404 34.455 235.604 34.455 250.5H137.545C137.545 236.656 137.545 224.333 137.545 210.5H162.556L160.511 175.239Z" fill="#F5C84C"/>
    <path d="M34.455 224.5H8.63301L7.37501 246.19C7.24501 248.53 9.10701 250.5 11.451 250.5H34.455V224.5Z" fill="#F9D0B4"/>
    <path d="M86 163.743C57.69 163.743 34.658 186.775 34.658 215.085C34.658 228.808 40.08 241.28 48.882 250.501H73.947C59.212 245.472 48.581 231.501 48.581 215.085C48.581 194.452 65.367 177.667 86 177.667C106.633 177.667 123.419 194.453 123.419 215.085C123.419 231.501 112.788 245.471 98.053 250.501H123.118C131.919 241.281 137.342 228.808 137.342 215.085C137.342 186.775 114.31 163.743 86 163.743Z" fill="#818182"/>
    <path d="M101.664 218.275C101.664 219.748 101.445 221.169 101.063 222.521C109.052 220.85 116.569 217.881 123.387 213.848C123.22 208.74 122.026 203.89 120.003 199.494C113.615 203.932 106.323 207.152 98.467 208.83C100.464 211.46 101.664 214.727 101.664 218.275Z" fill="#5B5D60"/>
    <path d="M70.336 218.275C70.336 214.726 71.536 211.46 73.533 208.831C65.677 207.153 58.385 203.933 51.997 199.495C49.974 203.891 48.78 208.741 48.613 213.849C55.431 217.882 62.949 220.851 70.937 222.522C70.555 221.169 70.336 219.749 70.336 218.275Z" fill="#5B5D60"/>
    <path d="M79.038 232.286V250.5H92.961V232.286C90.861 233.334 88.502 233.939 85.999 233.939C83.496 233.939 81.139 233.334 79.038 232.286Z" fill="#5B5D60"/>
    <path d="M86 202.612C77.363 202.612 70.336 209.639 70.336 218.276C70.336 226.913 77.362 233.94 86 233.94C94.638 233.94 101.664 226.913 101.664 218.276C101.664 209.639 94.637 202.612 86 202.612Z" fill="#818182"/>
    <path d="M86 163.743C74.718 163.743 64.281 167.41 55.799 173.601C58.316 178.05 60.921 181.896 63.591 185.137C69.842 180.448 77.602 177.666 85.999 177.666C94.397 177.666 102.157 180.448 108.408 185.137C111.079 181.896 113.684 178.05 116.2 173.601C107.719 167.409 97.282 163.743 86 163.743Z" fill="#FC657E"/>
    <path d="M38.335 62.302V65.11C38.335 67.027 39.285 68.816 40.865 69.9C64.855 86.351 107.148 86.348 131.135 69.9C132.716 68.816 133.665 67.027 133.665 65.11V62.302C106.44 53.768 68.64 52.802 38.335 62.302Z" fill="#5B5D60"/>
    <path d="M134.292 46.7731C126.099 43.0011 117.095 40.2131 107.682 38.5121C100.924 37.2911 94.056 36.7891 87.189 36.7821L84.971 36.7801C77.22 36.7731 69.467 37.4031 61.869 38.9381C53.57 40.6151 45.434 43.2021 37.712 46.7691C36.141 47.4951 35.284 49.2151 35.677 50.9011L38.336 62.3011C68.641 52.8021 106.441 53.7671 133.666 62.3011L136.325 50.9041C136.717 49.2191 135.864 47.4971 134.292 46.7731Z" fill="#FCDD86"/>
    <path d="M147.007 36.353C141.364 26.479 119.853 2.5 86 2.5C52.147 2.5 30.636 26.479 24.993 36.353C20.809 43.676 30.584 49.443 35.917 51.937L35.676 50.902C35.283 49.216 36.14 47.496 37.711 46.77C45.433 43.203 53.569 40.615 61.868 38.939C69.466 37.404 77.219 36.774 84.97 36.781L87.188 36.783C94.055 36.789 100.924 37.292 107.681 38.513C117.094 40.214 126.098 43.002 134.291 46.774C135.863 47.497 136.716 49.22 136.323 50.905L136.082 51.937C141.417 49.443 151.191 43.676 147.007 36.353Z" fill="#F5C84C"/>
    <path d="M85.459 138.638C63.56 138.638 45.744 120.822 45.744 98.923V74.938C45.744 73.557 46.863 72.438 48.244 72.438C49.625 72.438 50.744 73.557 50.744 74.938V98.923C50.744 118.065 66.317 133.638 85.459 133.638C104.601 133.638 120.174 118.065 120.174 98.923V75.417C120.174 74.036 121.293 72.917 122.674 72.917C124.055 72.917 125.174 74.036 125.174 75.417V98.923C125.174 120.822 107.357 138.638 85.459 138.638Z" fill="black"/>
    <path d="M137.545 252.04C136.164 252.04 135.045 250.921 135.045 249.54V192.896C135.045 191.515 136.164 190.396 137.545 190.396C138.926 190.396 140.045 191.515 140.045 192.896V249.54C140.045 250.92 138.926 252.04 137.545 252.04Z" fill="black"/>
    <path d="M34.455 252.04C33.074 252.04 31.955 250.921 31.955 249.54V192.896C31.955 191.515 33.074 190.396 34.455 190.396C35.836 190.396 36.955 191.515 36.955 192.896V249.54C36.955 250.92 35.836 252.04 34.455 252.04Z" fill="black"/>
    <path d="M125.062 104.136C124.401 104.136 123.729 104.093 123.007 104.005C121.636 103.837 120.661 102.59 120.829 101.22C120.997 99.849 122.243 98.875 123.614 99.042C124.133 99.105 124.605 99.136 125.061 99.136C132.25 99.136 138.099 93.287 138.099 86.098C138.099 80.463 134.498 75.492 129.139 73.727C127.827 73.295 127.115 71.882 127.546 70.571C127.977 69.26 129.39 68.545 130.703 68.978C138.117 71.419 143.099 78.299 143.099 86.098C143.1 96.044 135.008 104.136 125.062 104.136Z" fill="black"/>
    <path d="M45.856 104.136C35.91 104.136 27.818 96.0439 27.818 86.0979C27.818 78.1779 33.121 71.0709 40.714 68.8149C42.035 68.4189 43.429 69.1759 43.822 70.4999C44.215 71.8239 43.461 73.2149 42.137 73.6079C36.649 75.2379 32.817 80.3739 32.817 86.0979C32.817 93.2869 38.666 99.1359 45.855 99.1359C46.241 99.1359 46.639 99.1139 47.071 99.0679C48.441 98.9229 49.675 99.9189 49.82 101.292C49.965 102.665 48.969 103.896 47.596 104.041C46.988 104.104 46.419 104.136 45.856 104.136Z" fill="black"/>
    <path d="M86 115.573C81.224 115.573 76.738 113.623 74.001 110.358C73.114 109.3 73.253 107.723 74.311 106.836C75.37 105.949 76.946 106.089 77.833 107.146C79.631 109.292 82.685 110.573 86 110.573C89.315 110.573 92.368 109.292 94.167 107.146C95.057 106.089 96.632 105.951 97.689 106.837C98.747 107.724 98.885 109.301 97.999 110.359C95.261 113.624 90.775 115.573 86 115.573Z" fill="black"/>
    <path d="M102.789 92.8159C105.55 92.8159 107.789 90.5773 107.789 87.8159C107.789 85.0545 105.55 82.8159 102.789 82.8159C100.028 82.8159 97.789 85.0545 97.789 87.8159C97.789 90.5773 100.028 92.8159 102.789 92.8159Z" fill="black"/>
    <path d="M69.211 92.8159C71.9724 92.8159 74.211 90.5773 74.211 87.8159C74.211 85.0545 71.9724 82.8159 69.211 82.8159C66.4496 82.8159 64.211 85.0545 64.211 87.8159C64.211 90.5773 66.4496 92.8159 69.211 92.8159Z" fill="black"/>
    <path d="M86 84.7141C68.923 84.7151 51.851 80.4641 39.451 71.9611C37.187 70.4081 35.835 67.8471 35.835 65.1091V62.5631C35.835 61.1821 36.954 60.0631 38.335 60.0631C39.716 60.0631 40.835 61.1821 40.835 62.5631V65.1091C40.835 66.1971 41.375 67.2171 42.279 67.8371C65.57 83.8091 106.43 83.8091 129.721 67.8371C130.625 67.2171 131.165 66.1971 131.165 65.1091V62.4541C131.165 61.0731 132.284 59.9541 133.665 59.9541C135.046 59.9541 136.165 61.0731 136.165 62.4541V65.1091C136.165 67.8471 134.813 70.4081 132.549 71.9611C120.151 80.4621 103.073 84.7131 86 84.7141Z" fill="black"/>
    <path d="M38.335 64.802C37.904 64.802 37.477 64.691 37.095 64.473C36.491 64.128 36.058 63.547 35.9 62.87L33.241 51.47C32.583 48.651 34.023 45.72 36.662 44.501C44.374 40.939 52.688 38.243 61.372 36.488C68.663 35.016 76.639 34.292 84.972 34.281L87.19 34.283C94.726 34.29 101.574 34.869 108.126 36.053C117.801 37.801 126.956 40.644 135.338 44.503C137.978 45.719 139.417 48.65 138.759 51.472L136.1 62.87C135.942 63.547 135.509 64.128 134.906 64.473C134.302 64.818 133.583 64.896 132.918 64.688C104.418 55.754 67.586 55.755 39.084 64.688C38.838 64.764 38.586 64.802 38.335 64.802ZM86 53.002C101.877 53.002 117.756 55.048 131.836 59.138L133.89 50.336C134.011 49.815 133.741 49.272 133.246 49.044C125.248 45.361 116.497 42.646 107.237 40.972C100.98 39.842 94.422 39.289 87.186 39.282L84.968 39.28C84.926 39.28 84.882 39.28 84.84 39.28C76.85 39.28 69.289 39.989 62.363 41.388C54.059 43.066 46.118 45.639 38.759 49.038C38.261 49.268 37.989 49.812 38.11 50.332L40.164 59.136C54.245 55.048 70.124 53.002 86 53.002Z" fill="black"/>
    <path d="M35.582 54.28C35.221 54.28 34.855 54.202 34.508 54.036C29.661 51.724 23.54 47.87 21.902 42.635C21.12 40.136 21.439 37.536 22.823 35.114C28.404 25.347 50.632 0 86 0C121.367 0 143.597 25.347 149.178 35.113C150.562 37.535 150.88 40.136 150.098 42.634C148.46 47.868 142.341 51.722 137.496 54.033C136.25 54.627 134.758 54.098 134.163 52.853C133.569 51.607 134.098 50.115 135.344 49.52C140.842 46.896 144.481 43.842 145.326 41.14C145.697 39.954 145.542 38.827 144.836 37.593C139.655 28.528 118.986 5 86 5C53.013 5 32.345 28.528 27.164 37.594C26.458 38.829 26.303 39.956 26.674 41.142C27.52 43.845 31.16 46.899 36.66 49.523C37.906 50.117 38.435 51.609 37.84 52.856C37.412 53.754 36.516 54.28 35.582 54.28Z" fill="black"/>
    <path d="M106.004 169.443C105.442 169.443 104.879 169.255 104.413 168.87C103.349 167.991 103.198 166.415 104.077 165.35L114.521 152.707L107.283 146.098L92.264 161.887C93.151 162.902 93.074 164.444 92.078 165.365C91.062 166.303 89.482 166.241 88.545 165.229L88.351 165.019C86.703 163.233 86.724 160.458 88.395 158.7L104.083 142.207C105.712 140.495 108.453 140.4 110.199 141.991L118.333 149.418C120.057 150.993 120.241 153.634 118.755 155.432L107.932 168.535C107.437 169.133 106.724 169.443 106.004 169.443Z" fill="black"/>
    <path d="M66.051 169.51C65.331 169.51 64.616 169.2 64.122 168.602L53.243 155.432C51.757 153.634 51.942 150.993 53.665 149.419L61.799 141.992C63.543 140.399 66.288 140.496 67.915 142.208L83.602 158.699C85.275 160.458 85.296 163.233 83.65 165.016L83.351 165.34C82.414 166.354 80.832 166.415 79.818 165.477C78.805 164.539 78.744 162.957 79.681 161.944L79.734 161.887L64.716 146.099L57.478 152.708L67.977 165.417C68.856 166.481 68.706 168.058 67.642 168.937C67.176 169.322 66.612 169.51 66.051 169.51Z" fill="black"/>
    <path d="M104.705 146.605C103.818 146.605 102.959 146.132 102.506 145.298C101.288 143.056 100.645 140.523 100.645 137.972V132.27C100.645 130.889 101.764 129.77 103.145 129.77C104.526 129.77 105.645 130.889 105.645 132.27V137.972C105.645 139.691 106.08 141.4 106.901 142.911C107.559 144.124 107.11 145.642 105.897 146.301C105.518 146.508 105.108 146.605 104.705 146.605Z" fill="black"/>
    <path d="M67.256 146.675C66.848 146.675 66.434 146.575 66.051 146.364C64.842 145.697 64.402 144.177 65.069 142.968C65.91 141.442 66.355 139.715 66.355 137.972V133.188C66.355 131.807 67.474 130.688 68.855 130.688C70.236 130.688 71.355 131.807 71.355 133.188V137.972C71.355 140.556 70.696 143.118 69.448 145.382C68.993 146.208 68.138 146.675 67.256 146.675Z" fill="black"/>
    <path d="M86 204.756C84.619 204.756 83.5 203.637 83.5 202.256V178.355C83.5 176.974 84.619 175.855 86 175.855C87.381 175.855 88.5 176.974 88.5 178.355V202.256C88.5 203.637 87.381 204.756 86 204.756Z" fill="black"/>
    <path d="M165.584 227H137.545C136.164 227 135.045 225.881 135.045 224.5V210.5C135.045 209.119 136.164 208 137.545 208H165.584C168.595 208 171.045 210.45 171.045 213.461V221.539C171.045 224.55 168.595 227 165.584 227ZM140.045 222H165.584C165.838 222 166.045 221.793 166.045 221.539V213.461C166.045 213.207 165.838 213 165.584 213H140.045V222Z" fill="black"/>
    <path d="M34.455 227H6.41602C3.40502 227 0.955017 224.55 0.955017 221.539V213.461C0.955017 210.45 3.40502 208 6.41602 208H34.455C35.836 208 36.955 209.119 36.955 210.5V224.5C36.955 225.881 35.836 227 34.455 227ZM6.41602 213C6.16202 213 5.95502 213.207 5.95502 213.461V221.539C5.95502 221.793 6.16202 222 6.41602 222H31.955V213H6.41602Z" fill="black"/>
    <path d="M160.549 253H137.545C136.164 253 135.045 251.881 135.045 250.5C135.045 249.119 136.164 248 137.545 248H160.549C160.988 248 161.397 247.824 161.699 247.505C162.001 247.186 162.153 246.769 162.129 246.33L160.915 225.389C160.835 224.011 161.888 222.828 163.267 222.749C164.623 222.664 165.828 223.721 165.908 225.1L167.122 246.046C167.223 247.849 166.57 249.631 165.333 250.94C164.094 252.249 162.351 253 160.549 253Z" fill="black"/>
    <path d="M162.485 211.825C161.171 211.825 160.068 210.799 159.991 209.47L158.014 175.384C157.716 170.025 154.022 165.548 148.822 164.239L119.92 156.965C119.749 156.922 119.583 156.861 119.425 156.783L116.568 155.374C115.33 154.763 114.821 153.264 115.431 152.026C116.042 150.789 117.54 150.279 118.779 150.89L121.398 152.182L150.044 159.391C157.377 161.237 162.587 167.55 163.008 175.101L164.985 209.182C165.065 210.56 164.012 211.743 162.633 211.822C162.583 211.823 162.533 211.825 162.485 211.825Z" fill="black"/>
    <path d="M137.545 253H34.455C33.074 253 31.955 251.881 31.955 250.5C31.955 249.119 33.074 248 34.455 248H137.545C138.926 248 140.045 249.119 140.045 250.5C140.045 251.881 138.926 253 137.545 253Z" fill="black"/>
    <path d="M9.47603 212.501C9.42703 212.501 9.37803 212.5 9.32903 212.497C7.95103 212.417 6.89803 211.235 6.97803 209.857L8.99403 175.095C9.41403 167.55 14.624 161.236 21.958 159.39L50.602 152.181L53.1 150.949C54.339 150.338 55.837 150.847 56.448 152.086C57.059 153.324 56.55 154.823 55.311 155.434L52.575 156.783C52.417 156.861 52.251 156.922 52.08 156.965L23.179 164.239C17.979 165.548 14.284 170.025 13.986 175.379L11.969 210.147C11.892 211.475 10.79 212.501 9.47603 212.501Z" fill="black"/>
    <path d="M34.455 253H11.451C9.64901 253 7.906 252.25 6.668 250.94C5.43 249.631 4.778 247.85 4.878 246.051L6.09501 225.065C6.17401 223.687 7.35401 222.635 8.73501 222.714C10.113 222.794 11.166 223.976 11.086 225.354L9.869 246.335C9.845 246.768 9.998 247.186 10.3 247.505C10.602 247.824 11.011 248 11.45 248H34.454C35.835 248 36.954 249.119 36.954 250.5C36.954 251.881 35.836 253 34.455 253Z" fill="black"/>
    <path d="M98.408 252.877C97.378 252.877 96.413 252.235 96.051 251.208C95.591 249.906 96.275 248.478 97.577 248.019C111.538 243.095 120.919 229.86 120.919 215.084C120.919 195.83 105.254 180.166 86 180.166C66.746 180.166 51.082 195.831 51.082 215.084C51.082 229.759 60.378 242.964 74.213 247.944C75.512 248.411 76.186 249.843 75.719 251.143C75.251 252.443 73.819 253.116 72.52 252.649C56.707 246.958 46.082 231.861 46.082 215.085C46.082 193.074 63.989 175.167 86 175.167C108.012 175.167 125.919 193.074 125.919 215.085C125.919 231.977 115.197 247.107 99.239 252.735C98.965 252.832 98.684 252.877 98.408 252.877Z" fill="black"/>
    <path d="M48.38 252.466C47.709 252.466 47.04 252.197 46.547 251.667C37.268 241.668 32.158 228.676 32.158 215.084C32.158 185.396 56.311 161.242 86 161.242C115.689 161.242 139.842 185.395 139.842 215.084C139.842 228.645 134.752 241.615 125.51 251.605C124.574 252.618 122.99 252.681 121.978 251.742C120.964 250.804 120.903 249.223 121.84 248.209C130.225 239.146 134.842 227.381 134.842 215.084C134.842 188.152 112.932 166.242 86 166.242C59.068 166.242 37.158 188.152 37.158 215.084C37.158 227.41 41.794 239.194 50.212 248.265C51.151 249.277 51.092 250.859 50.08 251.798C49.599 252.246 48.989 252.466 48.38 252.466Z" fill="black"/>
    <path d="M99.021 211.21C97.875 211.21 96.843 210.419 96.583 209.255C96.281 207.908 97.13 206.571 98.477 206.27C105.436 204.714 111.969 201.901 117.897 197.908C119.043 197.138 120.596 197.44 121.367 198.585C122.138 199.73 121.836 201.284 120.69 202.055C114.244 206.397 107.137 209.456 99.569 211.149C99.385 211.19 99.201 211.21 99.021 211.21Z" fill="black"/>
    <path d="M101.662 224.894C100.512 224.894 99.476 224.096 99.222 222.926C98.928 221.577 99.783 220.245 101.132 219.951C108.366 218.373 115.293 215.675 121.719 211.929C122.909 211.235 124.443 211.637 125.138 212.83C125.833 214.023 125.43 215.554 124.237 216.249C117.359 220.258 109.943 223.147 102.197 224.835C102.018 224.875 101.838 224.894 101.662 224.894Z" fill="black"/>
    <path d="M72.971 211.208C72.79 211.208 72.606 211.188 72.423 211.147C64.752 209.431 57.561 206.312 51.05 201.878C49.909 201.101 49.613 199.545 50.391 198.404C51.167 197.262 52.723 196.966 53.865 197.745C59.852 201.822 66.463 204.69 73.515 206.268C74.863 206.569 75.71 207.906 75.409 209.253C75.147 210.417 74.115 211.208 72.971 211.208Z" fill="black"/>
    <path d="M70.338 224.894C70.162 224.894 69.983 224.875 69.803 224.836C62.077 223.152 54.679 220.273 47.816 216.279C46.623 215.585 46.218 214.054 46.913 212.861C47.607 211.668 49.138 211.263 50.331 211.958C56.743 215.688 63.653 218.378 70.869 219.951C72.218 220.245 73.073 221.577 72.779 222.926C72.523 224.096 71.488 224.894 70.338 224.894Z" fill="black"/>
    <path d="M92.962 252.5C91.581 252.5 90.462 251.381 90.462 250V232.906C90.462 231.525 91.581 230.406 92.962 230.406C94.343 230.406 95.462 231.525 95.462 232.906V250C95.462 251.381 94.343 252.5 92.962 252.5Z" fill="black"/>
    <path d="M79.039 252.5C77.658 252.5 76.539 251.381 76.539 250V232.937C76.539 231.556 77.658 230.437 79.039 230.437C80.42 230.437 81.539 231.556 81.539 232.937V250C81.539 251.381 80.419 252.5 79.039 252.5Z" fill="black"/>
    <path d="M86 236.439C75.984 236.439 67.836 228.291 67.836 218.275C67.836 208.259 75.984 200.111 86 200.111C96.016 200.111 104.164 208.259 104.164 218.275C104.164 228.291 96.016 236.439 86 236.439ZM86 205.112C78.742 205.112 72.836 211.017 72.836 218.276C72.836 225.535 78.741 231.44 86 231.44C93.259 231.44 99.164 225.535 99.164 218.276C99.164 211.017 93.259 205.112 86 205.112Z" fill="black"/>
    <path d="M89.48 221.355H82.519C81.138 221.355 80.019 220.236 80.019 218.855C80.019 217.474 81.138 216.355 82.519 216.355H89.48C90.861 216.355 91.98 217.474 91.98 218.855C91.98 220.236 90.861 221.355 89.48 221.355Z" fill="black"/>
    <path d="M108.877 187.059C108.327 187.059 107.774 186.879 107.313 186.507C106.237 185.642 106.066 184.068 106.931 182.992C109.239 180.123 111.512 176.748 113.688 172.962C114.377 171.764 115.908 171.353 117.102 172.04C118.298 172.728 118.711 174.256 118.024 175.453C115.718 179.465 113.296 183.055 110.828 186.126C110.333 186.74 109.608 187.059 108.877 187.059Z" fill="black"/>
    <path d="M62.997 186.902C62.263 186.902 61.536 186.58 61.042 185.963C58.664 182.986 56.334 179.531 54.115 175.692C53.424 174.497 53.833 172.967 55.029 172.276C56.225 171.585 57.754 171.994 58.445 173.19C60.539 176.813 62.727 180.06 64.949 182.841C65.811 183.92 65.635 185.493 64.556 186.355C64.095 186.723 63.544 186.902 62.997 186.902Z" fill="black"/>
</svg>
