<svg width="130" height="139" viewBox="0 0 130 139" fill="none" xmlns="http://www.w3.org/2000/svg">
    <path d="M27.244 74.176V98.924C27.244 119.392 43.991 136.139 64.459 136.139C84.927 136.139 101.674 119.392 101.674 98.924V74.681C79.775 84.907 48.841 84.746 27.244 74.176Z" fill="#F9D0B4"/>
    <path d="M108.222 71.1411C106.153 72.4361 103.961 73.6121 101.674 74.6811C101.674 81.5971 101.674 94.2231 101.674 98.9241C101.674 99.7631 101.636 100.594 101.58 101.42C102.39 101.55 103.215 101.637 104.062 101.637C112.643 101.637 119.599 94.6801 119.599 86.0991C119.599 78.9601 114.78 72.9621 108.222 71.1411Z" fill="#F9D0B4"/>
    <path d="M27.244 74.1759C25.231 73.1909 23.307 72.1079 21.471 70.9419C14.52 72.4889 9.31903 78.6819 9.31903 86.0989C9.31903 94.6799 16.275 101.637 24.857 101.637C25.704 101.637 26.529 101.551 27.339 101.42C27.284 100.594 27.245 99.7639 27.245 98.9249C27.244 95.5719 27.244 82.5579 27.244 74.1759Z" fill="#F9D0B4"/>
    <path d="M17.335 62.302V65.11C17.335 67.027 18.285 68.816 19.865 69.9C43.855 86.351 86.148 86.348 110.135 69.9C111.716 68.816 112.665 67.027 112.665 65.11V62.302C85.44 53.768 47.64 52.802 17.335 62.302Z" fill="#5B5D60"/>
    <path d="M113.292 46.7731C105.099 43.0011 96.095 40.2131 86.682 38.5121C79.924 37.2911 73.056 36.7891 66.189 36.7821L63.971 36.7801C56.22 36.7731 48.467 37.4031 40.869 38.9381C32.57 40.6151 24.434 43.2021 16.712 46.7691C15.141 47.4951 14.284 49.2151 14.677 50.9011L17.336 62.3011C47.641 52.8021 85.441 53.7671 112.666 62.3011L115.325 50.9041C115.717 49.2191 114.864 47.4971 113.292 46.7731Z" fill="#FCDD86"/>
    <path d="M126.007 36.353C120.364 26.479 98.853 2.5 65 2.5C31.147 2.5 9.636 26.479 3.993 36.353C-0.190995 43.676 9.58401 49.443 14.917 51.937L14.676 50.902C14.283 49.216 15.14 47.496 16.711 46.77C24.433 43.203 32.569 40.615 40.868 38.939C48.466 37.404 56.219 36.774 63.97 36.781L66.188 36.783C73.055 36.789 79.924 37.292 86.681 38.513C96.094 40.214 105.098 43.002 113.291 46.774C114.863 47.497 115.716 49.22 115.323 50.905L115.082 51.937C120.417 49.443 130.191 43.676 126.007 36.353Z" fill="#F5C84C"/>
    <path d="M64.459 138.638C42.56 138.638 24.744 120.822 24.744 98.923V74.938C24.744 73.557 25.863 72.438 27.244 72.438C28.625 72.438 29.744 73.557 29.744 74.938V98.923C29.744 118.065 45.317 133.638 64.459 133.638C83.601 133.638 99.174 118.065 99.174 98.923V75.417C99.174 74.036 100.293 72.917 101.674 72.917C103.055 72.917 104.174 74.036 104.174 75.417V98.923C104.174 120.822 86.357 138.638 64.459 138.638Z" fill="black"/>
    <path d="M104.062 104.136C103.401 104.136 102.729 104.093 102.007 104.005C100.636 103.837 99.661 102.59 99.829 101.22C99.997 99.849 101.243 98.875 102.614 99.042C103.133 99.105 103.605 99.136 104.061 99.136C111.25 99.136 117.099 93.287 117.099 86.098C117.099 80.463 113.498 75.492 108.139 73.727C106.827 73.295 106.115 71.882 106.546 70.571C106.977 69.26 108.39 68.545 109.703 68.978C117.117 71.419 122.099 78.299 122.099 86.098C122.1 96.044 114.008 104.136 104.062 104.136Z" fill="black"/>
    <path d="M24.856 104.136C14.91 104.136 6.81799 96.0439 6.81799 86.0979C6.81799 78.1779 12.121 71.0709 19.714 68.8149C21.035 68.4189 22.429 69.1759 22.822 70.4999C23.215 71.8239 22.461 73.2149 21.137 73.6079C15.649 75.2379 11.817 80.3739 11.817 86.0979C11.817 93.2869 17.666 99.1359 24.855 99.1359C25.241 99.1359 25.639 99.1139 26.071 99.0679C27.441 98.9229 28.675 99.9189 28.82 101.292C28.965 102.665 27.969 103.896 26.596 104.041C25.988 104.104 25.419 104.136 24.856 104.136Z" fill="black"/>
    <path d="M65 115.573C60.224 115.573 55.738 113.623 53.001 110.358C52.114 109.3 52.253 107.723 53.311 106.836C54.37 105.949 55.946 106.089 56.833 107.146C58.631 109.292 61.685 110.573 65 110.573C68.315 110.573 71.368 109.292 73.167 107.146C74.057 106.089 75.632 105.951 76.689 106.837C77.747 107.724 77.885 109.301 76.999 110.359C74.261 113.624 69.775 115.573 65 115.573Z" fill="black"/>
    <path d="M81.789 92.8159C84.5504 92.8159 86.789 90.5773 86.789 87.8159C86.789 85.0545 84.5504 82.8159 81.789 82.8159C79.0276 82.8159 76.789 85.0545 76.789 87.8159C76.789 90.5773 79.0276 92.8159 81.789 92.8159Z" fill="black"/>
    <path d="M48.211 92.8159C50.9724 92.8159 53.211 90.5773 53.211 87.8159C53.211 85.0545 50.9724 82.8159 48.211 82.8159C45.4496 82.8159 43.211 85.0545 43.211 87.8159C43.211 90.5773 45.4496 92.8159 48.211 92.8159Z" fill="black"/>
    <path d="M65 84.7141C47.923 84.7151 30.851 80.4641 18.451 71.9611C16.187 70.4081 14.835 67.8471 14.835 65.1091V62.5631C14.835 61.1821 15.954 60.0631 17.335 60.0631C18.716 60.0631 19.835 61.1821 19.835 62.5631V65.1091C19.835 66.1971 20.375 67.2171 21.279 67.8371C44.57 83.8091 85.43 83.8091 108.721 67.8371C109.625 67.2171 110.165 66.1971 110.165 65.1091V62.4541C110.165 61.0731 111.284 59.9541 112.665 59.9541C114.046 59.9541 115.165 61.0731 115.165 62.4541V65.1091C115.165 67.8471 113.813 70.4081 111.549 71.9611C99.151 80.4621 82.073 84.7131 65 84.7141Z" fill="black"/>
    <path d="M17.335 64.802C16.904 64.802 16.477 64.691 16.095 64.473C15.491 64.128 15.058 63.547 14.9 62.87L12.241 51.47C11.583 48.651 13.023 45.72 15.662 44.501C23.374 40.939 31.688 38.243 40.372 36.488C47.663 35.016 55.639 34.292 63.972 34.281L66.19 34.283C73.726 34.29 80.574 34.869 87.126 36.053C96.801 37.801 105.956 40.644 114.338 44.503C116.978 45.719 118.417 48.65 117.759 51.472L115.1 62.87C114.942 63.547 114.509 64.128 113.906 64.473C113.302 64.818 112.583 64.896 111.918 64.688C83.418 55.754 46.586 55.755 18.084 64.688C17.838 64.764 17.586 64.802 17.335 64.802ZM65 53.002C80.877 53.002 96.756 55.048 110.836 59.138L112.89 50.336C113.011 49.815 112.741 49.272 112.246 49.044C104.248 45.361 95.497 42.646 86.237 40.972C79.98 39.842 73.422 39.289 66.186 39.282L63.968 39.28C63.926 39.28 63.882 39.28 63.84 39.28C55.85 39.28 48.289 39.989 41.363 41.388C33.059 43.066 25.118 45.639 17.759 49.038C17.261 49.268 16.989 49.812 17.11 50.332L19.164 59.136C33.245 55.048 49.124 53.002 65 53.002Z" fill="black"/>
    <path d="M14.582 54.28C14.221 54.28 13.855 54.202 13.508 54.036C8.66103 51.724 2.54002 47.87 0.902022 42.635C0.120022 40.136 0.43902 37.536 1.82302 35.114C7.40402 25.347 29.632 0 65 0C100.367 0 122.597 25.347 128.178 35.113C129.562 37.535 129.88 40.136 129.098 42.634C127.46 47.868 121.341 51.722 116.496 54.033C115.25 54.627 113.758 54.098 113.163 52.853C112.569 51.607 113.098 50.115 114.344 49.52C119.842 46.896 123.481 43.842 124.326 41.14C124.697 39.954 124.542 38.827 123.836 37.593C118.655 28.528 97.986 5 65 5C32.013 5 11.345 28.528 6.16402 37.594C5.45802 38.829 5.30303 39.956 5.67403 41.142C6.52003 43.845 10.16 46.899 15.66 49.523C16.906 50.117 17.435 51.609 16.84 52.856C16.412 53.754 15.516 54.28 14.582 54.28Z" fill="black"/>
</svg>
