<svg width="456" height="334" viewBox="0 0 456 334" fill="none" xmlns="http://www.w3.org/2000/svg">
    <path d="M380.942 103.18H382.532C418.256 103.18 447.216 132.14 447.216 167.864V260.878C447.216 296.602 418.256 325.562 382.532 325.562H330.56C300.806 325.562 273.82 313.868 253.872 294.85C251.206 292.29 247.636 290.918 243.962 290.918H195.812C181.522 290.918 169.938 279.334 169.938 265.044V156.324C169.938 142.034 181.522 130.45 195.812 130.45H252.034C255.604 130.45 259.098 129.156 261.762 126.75C287.802 103.156 326.882 43.3021 346.42 14.1621C350.404 8.2121 358.426 6.6341 364.376 10.5921C389.496 27.5221 391.706 51.6281 380.478 69.4241L370.792 84.7741C365.748 92.7661 371.492 103.18 380.942 103.18Z" fill="#F5C84C"/>
    <path d="M205.846 156.324V265.052C205.846 279.34 217.428 290.922 231.716 290.922H195.812C181.524 290.922 169.942 279.34 169.942 265.052V156.324C169.942 142.036 181.524 130.454 195.812 130.454H231.716C217.428 130.454 205.846 142.036 205.846 156.324Z" fill="#FFCAA6"/>
    <path d="M287.94 130.454H252.036C255.612 130.454 259.1 129.156 261.768 126.754C287.798 103.162 326.888 43.308 346.424 14.164C350.41 8.22204 358.434 6.63804 364.376 10.588C369.59 14.094 373.806 17.918 377.132 21.94C356.458 52.898 321.566 105.1 297.672 126.754C295.002 129.154 291.516 130.454 287.94 130.454Z" fill="#F5C84C"/>
    <path d="M447.214 167.87V260.87C447.214 296.596 418.248 325.562 382.522 325.562H355.834C391.56 325.562 420.526 296.596 420.526 260.87V167.87C420.526 132.144 391.56 103.178 355.834 103.178H354.25C344.802 103.178 339.056 92.7701 344.108 84.7801L353.786 69.4261C363.802 53.5381 363.126 32.6321 344.996 16.2801C345.476 15.5501 345.956 14.8561 346.42 14.1621C350.406 8.22009 358.43 6.63608 364.372 10.5861C389.494 27.5241 391.7 51.6321 380.474 69.4241L370.796 84.7781C365.742 92.7661 371.49 103.176 380.938 103.176H382.522C418.25 103.178 447.214 132.144 447.214 167.87Z" fill="#F5C84C"/>
    <path d="M242.302 103.18H243.892C279.616 103.18 308.576 132.14 308.576 167.864V260.878C308.576 296.602 279.616 325.562 243.892 325.562H191.92C162.166 325.562 135.18 313.868 115.232 294.85C112.566 292.29 108.996 290.918 105.322 290.918H52.188V130.45H113.394C116.964 130.45 120.458 129.156 123.122 126.75C149.162 103.156 188.242 43.3021 207.78 14.1621C211.764 8.2121 219.786 6.6341 225.736 10.5921C250.856 27.5221 253.066 51.6281 241.838 69.4241L232.152 84.7741C227.11 92.7661 232.852 103.18 242.302 103.18Z" fill="#F5C84C"/>
    <path d="M86.008 156.324V265.052C86.008 279.34 97.59 290.922 111.878 290.922H52.192V130.454H111.878C97.59 130.454 86.008 142.036 86.008 156.324Z" fill="#F5C84C"/>
    <path d="M149.3 130.454H113.396C116.972 130.454 120.46 129.156 123.128 126.754C149.158 103.162 188.248 43.308 207.784 14.164C211.77 8.22204 219.794 6.63804 225.736 10.588C230.95 14.094 235.166 17.918 238.492 21.94C217.818 52.898 182.926 105.1 159.032 126.754C156.364 129.154 152.878 130.454 149.3 130.454Z" fill="#F5C84C"/>
    <path d="M308.576 167.87V260.87C308.576 296.596 279.61 325.562 243.884 325.562H217.196C252.922 325.562 281.888 296.596 281.888 260.87V167.87C281.888 132.144 252.922 103.178 217.196 103.178H215.612C206.164 103.178 200.418 92.7701 205.47 84.7801L215.148 69.4261C225.166 53.5381 224.488 32.6321 206.358 16.2801C206.838 15.5501 207.318 14.8561 207.782 14.1621C211.768 8.22009 219.792 6.63608 225.734 10.5861C250.856 27.5241 253.062 51.6321 241.836 69.4241L232.158 84.7781C227.104 92.7661 232.852 103.176 242.3 103.176H243.884C279.61 103.178 308.576 132.144 308.576 167.87Z" fill="#F5C84C"/>
    <path d="M8.784 137.212V284.158C8.784 287.892 11.812 290.92 15.546 290.92H52.188V130.452H15.546C11.812 130.45 8.784 133.478 8.784 137.212Z" fill="#EDF4FC"/>
    <path d="M380.94 95.1879C377.786 95.1879 375.882 91.6959 377.56 89.0479L387.24 73.6879C399.88 53.6679 399.1 24.3479 368.8 3.92793C359.2 -2.45207 346.18 0.147928 339.78 9.70793C321.934 36.4059 296.34 75.1459 274.12 101.788C263.214 96.7719 253.23 95.1879 242.3 95.1879C240.16 95.1879 239.14 93.7279 238.8 93.1079C237.332 90.4299 238.262 90.0939 248.6 73.6879C261.24 53.6679 260.46 24.3479 230.16 3.92793C220.58 -2.45207 207.54 0.147928 201.14 9.70793C181.084 39.6359 142.842 98.0819 117.76 120.808C116.62 121.848 115.02 122.448 113.4 122.448C90.572 122.448 34.508 122.448 15.54 122.448C7.4 122.448 0.780001 129.068 0.780001 137.208V284.148C0.780001 292.288 7.4 298.908 15.54 298.908C45.504 298.908 75.372 298.908 105.32 298.908C107 298.908 108.54 299.528 109.72 300.648C131.98 321.868 161.18 333.568 191.92 333.568H243.9C257.66 333.568 270.56 329.708 281.54 323.028C296.78 329.928 313.42 333.568 330.56 333.568H382.54C422.6 333.568 455.22 300.948 455.22 260.888V167.868C455.22 129.636 425.022 95.1879 380.94 95.1879ZM44.18 282.908H16.78V138.448H44.18V282.908ZM243.9 317.568H191.92C165.3 317.568 140.04 307.448 120.78 289.088C116.64 285.108 111.16 282.908 105.32 282.908H60.18V138.448H113.4C119 138.448 124.36 136.408 128.5 132.688C154.754 108.9 193.694 49.7799 214.42 18.6079C215.94 16.3479 219.04 15.7479 221.26 17.2279C244.06 32.5879 243.34 52.0479 235.08 65.1479L225.38 80.5079C216.978 93.8459 226.608 111.188 242.3 111.188H243.9C274.992 111.188 300.58 136.482 300.58 167.868V260.888C300.58 292.384 274.85 317.568 243.9 317.568ZM439.22 260.888C439.22 292.128 413.78 317.568 382.54 317.568H330.56C318.58 317.568 306.9 315.508 295.92 311.588C308.7 298.488 316.58 280.568 316.58 260.888V167.868C316.58 144.348 305.36 123.408 287.98 110.128C310.194 83.1139 334.466 46.4619 353.06 18.6079C354.58 16.3479 357.68 15.7479 359.9 17.2279C382.7 32.5879 381.98 52.0479 373.72 65.1479L364.02 80.5079C356.242 92.8539 363.438 111.188 382.54 111.188C413.78 111.188 439.22 136.608 439.22 167.868V260.888Z" fill="black"/>
    <path d="M209.22 270.028C204.084 270.61 201.1 270.528 199.1 270.528C194.74 270.528 191.16 274.028 191.1 278.408C191.042 282.824 194.552 286.468 198.98 286.528C202.81 286.586 206.654 286.422 211.04 285.908C215.394 285.436 218.57 281.494 218.08 277.048C217.58 272.668 213.62 269.528 209.22 270.028Z" fill="black"/>
    <path d="M172.88 265.188C158.272 259.258 146.812 248.578 143.94 244.568C141.22 241.108 136.2 240.468 132.72 243.188C129.24 245.888 128.6 250.908 131.3 254.408C138.09 263.1 152.046 274.088 166.86 280.008C171.13 281.716 175.662 279.602 177.3 275.608C178.96 271.528 176.98 266.848 172.88 265.188Z" fill="black"/>
</svg>
